<svg width="80" height="80" viewBox="0 0 80 80" fill="none" xmlns="http://www.w3.org/2000/svg">
<path fill-rule="evenodd" clip-rule="evenodd" d="M18.6272 3.87805V0L45.3896 0C63.2697 0 74.346 16.4698 77.6491 24.7046C76.0289 35.8504 67.0888 35.5488 62.532 33.0353C60.1016 13.6737 41.8454 11.1314 32.587 12.7832V19.5339C27.9279 20.6693 26.6965 22.3604 26.5836 26.7155C24.3727 25.9526 22.5317 26.0363 18.6272 26.7155V13.8604V10.8442V8.54608L18.6271 6.3916L18.6272 3.87805Z" fill="url(#paint0_linear_115_21)"/>
<path d="M17.5045 31.312C17.6203 31.5913 17.9144 31.2162 18.2278 31.0247L19.2404 30.6656C19.5298 30.5459 20.1229 30.3065 20.1807 30.3065C20.2386 30.3065 20.9282 30.2108 21.2657 30.1629L23.074 30.3783L25.2439 30.7374L26.6182 31.0247L27.8478 31.1683C27.7996 31.9583 27.9057 33.567 28.7158 33.6819C29.7284 33.8255 30.1624 33.9691 30.8134 33.6819C31.3341 33.4521 31.2715 32.5328 31.175 32.1019L35.0809 32.8919L39.2761 33.5382C40.1817 33.8011 40.6543 34.0036 41.3737 34.5437C42.0908 35.0597 42.406 35.4383 42.8926 36.1954C43.2443 36.8934 43.3761 37.3542 43.5436 38.2781V39.3553C45.3277 38.8047 49.33 37.0572 49.1854 35.6927C49.0407 34.3282 49.1125 34.9466 49.0407 34.4718C48.9166 33.6505 48.6067 32.3892 48.6067 32.3892L47.3771 29.2293C46.6644 28.3951 46.2201 28.0269 45.3518 27.5775C44.8075 27.3925 44.3899 27.2817 43.9052 27.2006C44.6285 27.9727 44.7009 28.942 44.5562 29.2293C44.4115 29.5166 43.5436 29.8756 41.7353 29.6602C40.2887 29.4878 37.4196 28.583 36.1658 28.1521L35.8765 29.2293C37.2026 29.3375 40.0862 30.121 41.012 32.3892C36.6229 31.3652 34.1426 30.7599 30.0177 30.1629C29.2944 29.9953 27.1824 29.574 24.5206 29.2293C21.8588 28.8846 17.5999 30.8811 17.5999 30.8811C17.5999 30.8811 17.4384 31.1526 17.5045 31.312Z" fill="#C5035C"/>
<path d="M28.3541 22.8377C27.6103 23.8251 27.4556 24.6216 27.4138 25.854C27.381 26.8217 27.7514 28.0563 27.8478 28.2957C28.6579 28.6979 33.5378 29.0857 35.8765 29.2293L36.1658 28.1521L36.0212 26.2848C35.973 26.5901 35.7174 27.276 35.0809 27.5775C34.4444 27.8791 33.9959 27.4519 33.8512 27.2006L34.7192 25.854C34.7192 25.3034 34.3576 24.116 32.911 23.7713C31.4643 23.4266 30.677 21.952 30.4641 21.2577C29.7357 21.5343 28.9723 22.0171 28.3541 22.8377Z" fill="#C5035C"/>
<path d="M42.8926 27.0748L41.012 26.8594C40.1966 26.3484 39.7172 26.0236 38.4081 24.6331C38.3676 24.0014 38.429 23.5632 38.8421 22.4786C38.5036 21.808 38.2143 21.6177 37.5401 21.545C37.5401 21.545 37.6125 21.2577 37.5401 21.2577C37.4677 21.2577 36.6721 21.2577 36.6721 21.2577L36.0212 20.396L35.3702 20.6114L34.7192 21.0423H31.175C30.9893 21.0818 30.7405 21.1528 30.4641 21.2577C30.677 21.952 31.4643 23.4266 32.911 23.7713C34.3576 24.116 34.7192 25.3034 34.7192 25.854L33.8512 27.2006C33.9959 27.4519 34.4444 27.8791 35.0809 27.5775C35.7174 27.276 35.973 26.5901 36.0212 26.2848L36.1658 28.1521C37.4196 28.583 40.2887 29.4878 41.7353 29.6602C43.5436 29.8756 44.4115 29.5166 44.5562 29.2293C44.7009 28.942 44.6285 27.9727 43.9052 27.2006C43.6079 27.1509 43.2852 27.1123 42.8926 27.0748Z" fill="#FC32A2"/>
<path d="M27.8478 28.2957L23.7249 28.0802C21.4104 27.9593 18.4689 29.3225 17.2874 30.0193L17.5999 30.8811C17.5999 30.8811 21.8588 28.8846 24.5206 29.2293C27.1824 29.574 29.2944 29.9953 30.0177 30.1629C34.1426 30.7599 36.6229 31.3652 41.012 32.3892C40.0862 30.121 37.2026 29.3375 35.8765 29.2293C33.5378 29.0857 28.6579 28.6979 27.8478 28.2957Z" fill="#FF34A7"/>
<path d="M18.7711 49.2656L32.7309 46.6802L32.5863 33.8252C29.0903 32.8198 21.4329 31.1105 18.7711 32.317L18.7711 49.2656Z" fill="#EC2389"/>
<path d="M12.5506 48.9783C11.538 50.8934 9.95936 55.5614 12.5506 58.1707C14.6355 60.2701 18.917 56.4804 21.158 55.0108C24.0271 53.5745 30.3296 50.6588 32.5863 50.4864H32.7309L32.7309 46.6802L18.7711 49.2656L18.7711 51.7791C16.3842 52.21 13.3463 50.7737 12.5506 48.9783Z" fill="#FF2CA1"/>
<path d="M21.158 55.0108C18.917 56.4804 14.6355 60.2701 12.5506 58.1707C13.3222 60.0619 15.7621 63.0398 19.3497 59.8225C21.4923 58.4236 29.0964 53.8384 32.7309 53.4309L32.7309 50.4864H32.5863C30.3296 50.6588 24.0271 53.5745 21.158 55.0108Z" fill="#D20564"/>
<path d="M21.0473 64.1019C19.6998 65.9491 20.6413 66.6363 21.2805 66.749C23.644 66.5437 27.6665 62.5898 29.3823 60.6385C28.8932 60.578 27.8876 60.4229 26.8743 60.1917C26.4682 60.099 26.0608 59.9942 25.685 59.8783C24.3714 59.4734 23.359 61.4981 23.0171 62.5611L21.0473 64.1019Z" fill="#D9156C"/>
<path d="M35.8114 66.8565C35.6141 67.0899 35.2084 67.7595 35.1638 68.5708C35.1191 69.3821 34.0054 70.2574 33.4542 70.5937C32.6526 71.3842 32.3487 72.5496 33.9505 72.9295C36.5243 72.4753 38.8245 69.19 39.6528 67.6041L40.4985 65.7851L37.6856 65.4344C37.14 66.1416 36.5179 66.6466 35.8114 66.8565Z" fill="#D9156C"/>
<path fill-rule="evenodd" clip-rule="evenodd" d="M49.6197 43.305L49.293 43.7811C49.2687 43.631 49.3649 43.4737 49.6197 43.305ZM37.6856 65.4344L40.4985 65.7851C42.2525 62.6131 46.2201 57.8118 46.2201 57.8118C46.2201 57.8118 51.9568 50.544 54.5382 47.1831C54.9958 46.1986 53.1709 45.5538 51.5491 44.9807C50.405 44.5765 49.3621 44.2079 49.293 43.7811L46.2201 48.2603C46.7731 48.0635 46.6152 48.9472 46.0152 50.4429C44.6068 53.7338 41.9991 61.322 37.6856 65.4344Z" fill="#FF2D99"/>
<path d="M46.0152 50.4429C44.5608 54.0685 40.5086 61.2899 37.6856 65.4344C41.9991 61.322 44.6068 53.7338 46.0152 50.4429Z" fill="#CB025E"/>
<path fill-rule="evenodd" clip-rule="evenodd" d="M29.3823 60.6385C28.8932 60.578 27.8876 60.4229 26.8743 60.1917C28.1558 58.5706 31.2293 56.2772 34.1794 54.0758C34.7636 53.6399 35.3431 53.2075 35.9028 52.7847C40.1047 51.3672 42.4386 45.9216 42.6942 43.7811C43.0422 42.6312 43.2692 41.5993 43.4278 40.8784C43.5936 40.1247 43.6846 39.7109 43.7609 39.8579L47.6673 42.515L49.6197 43.305C49.3649 43.4737 49.2687 43.631 49.293 43.7811L46.2201 48.2603C46.0111 48.8535 42.2158 51.6405 29.3823 60.6385Z" fill="#FC30A1"/>
<path d="M42.6942 43.7811C42.0132 46.0315 40.8688 48.7341 38.8667 50.4429C38.4645 50.7862 38.0182 51.1487 37.5404 51.5251C37.0257 51.9308 36.4745 52.3527 35.9028 52.7847C40.1047 51.3672 42.4386 45.9216 42.6942 43.7811Z" fill="#D9156C"/>
<path d="M60.5503 47.614C51.1184 48.7056 47.6031 43.4726 47.0244 40.7197C49.3631 43.7599 56.3261 48.3178 65.4687 42.2278C66.1053 41.8224 58.6938 39.5693 54.9084 38.4934C59.3131 39.095 68.9216 39.4193 73.2165 36.1195C71.5378 37.195 67.4642 37.1594 65.4687 36.9853C62.4598 35.7788 56.7167 35.3335 56.7167 35.3335L49.1136 35.7644C49.1136 36.698 45.8008 38.8812 43.5441 39.2834C43.0619 42.2996 43.6591 47.7153 47.603 50.0557C52.2641 52.8217 58.7392 49.6108 60.5503 47.614Z" fill="#FE2B9E"/>
<path d="M54.9084 38.4934C58.6938 39.5693 66.1053 41.8224 65.4687 42.2278C67.9039 41.773 72.9478 39.8435 73.6421 35.7644C73.5269 35.8944 73.3836 36.0124 73.2165 36.1195C68.9216 39.4193 59.3131 39.095 54.9084 38.4934Z" fill="#C90363"/>
<path d="M47.0244 40.7197C47.6031 43.4726 51.1184 48.7056 60.5503 47.614C58.7392 49.6108 52.2641 52.8217 47.603 50.0557C43.6591 47.7153 43.0619 42.2996 43.5441 39.2834C43.5441 39.1637 43.35 39.6424 42.5398 42.2278C41.527 45.4595 45.867 48.6231 46.084 50.4866C46.301 52.3502 49.339 54.7956 52.4491 54.7956C54.9372 54.7956 57.3916 51.9229 58.3079 50.4866C59.2241 49.0503 61.1307 51.622 63.0011 51.4921C67.2861 51.1944 73.7716 47.1735 70.9575 43.9514C69.4846 42.265 67.6122 42.9009 65.4687 42.2278C56.3261 48.3178 49.3631 43.7599 47.0244 40.7197Z" fill="#C7005D"/>
<path d="M79.0435 46.5365C77.4692 44.5832 72.0324 43.8881 69.5109 43.7848C68.684 44.1822 67.8086 44.5542 66.8346 45.0135C69.8735 45.3487 76.4789 46.4801 78.5898 48.3245C78.7462 47.7511 78.8969 47.1565 79.0435 46.5365Z" fill="#F32698"/>
<path fill-rule="evenodd" clip-rule="evenodd" d="M60.674 50.4864C62.9445 50.7019 67.6881 51.9658 68.4982 55.2981C69.3083 58.6303 71.9682 59.7028 73.1969 59.8225C75.8424 55.9066 77.3852 52.7414 78.5898 48.3245C76.4789 46.4801 69.8735 45.3487 66.8346 45.0135C66.4092 45.2141 65.9651 45.4314 65.4979 45.6748C62.0902 47.4499 62.4948 45.6748 61.4474 46.5365C60.4 47.3983 61.0977 49.3307 60.674 50.4864ZM79.4578 44.6693C79.3224 45.318 79.1848 45.9391 79.0435 46.5365C77.4692 44.5832 72.0324 43.8881 69.5109 43.7848C70.9571 43.0897 72.2547 42.3169 73.6713 40.8631C76.7458 37.7078 77.4435 35.4153 78.5898 30.7371C80.2286 35.3723 80.3277 38.4797 79.4578 44.6693Z" fill="url(#paint1_linear_115_21)"/>
<path d="M68.4982 55.2981C67.6881 51.9658 62.9445 50.7019 60.674 50.4864C60.3472 51.3777 59.9216 52.2107 59.3969 53.0718C61.1939 52.5691 64.9299 52.3105 65.4979 55.2981C66.0659 58.2856 69.6887 61.2348 71.429 62.336C72.0688 61.4554 72.6559 60.6232 73.1969 59.8225C71.9682 59.7028 69.3083 58.6303 68.4982 55.2981Z" fill="#FE2EA1"/>
<path d="M44.9559 76.6274C51.39 75.6841 54.116 74.5607 58.6265 72.3184C64.3572 69.2064 67.17 67.0312 71.429 62.336C69.6887 61.2348 66.0659 58.2856 65.4979 55.2981C64.9299 52.3105 61.1939 52.5691 59.3969 53.0718C58.9659 53.779 58.4681 54.5051 57.9032 55.2981C55.5719 58.5707 52.5157 59.9311 49.4267 61.3061C47.9174 61.978 46.4002 62.6533 44.9559 63.5569C43.5116 64.4605 42.8931 67.2788 42.0975 68.5715C41.3018 69.8642 39.4936 71.875 39.6382 73.4675C39.6382 75.1192 44.9559 76.6274 44.9559 76.6274Z" fill="url(#paint2_linear_115_21)"/>
<path fill-rule="evenodd" clip-rule="evenodd" d="M30.8784 69.4458C30.8191 69.3069 30.7606 69.1648 30.7017 69.0217C30.0682 67.4835 29.3934 65.845 27.342 67.1477C25.0997 68.5715 22.8092 69.5459 21.2662 69.4458C20.4853 69.3951 20.065 69.0989 19.4578 68.671C18.8652 68.2534 18.0946 67.7103 16.637 67.1477C13.686 66.0086 12.9276 67.6223 12.7347 68.5715C13.5453 70.5344 16.5281 75.0732 18.0112 76.6005C21.3893 80.6554 27.5373 81.1572 31.537 77.7046C31.9949 77.3094 32.6221 76.6005 32.6221 76.6005C32.6221 76.6005 34.2374 74.8195 32.6221 74.3886C30.8861 74.3886 29.8958 72.9574 29.8735 71.875C29.8537 70.9169 30.3234 70.1851 30.8784 69.4458ZM13.3652 65.0871C12.9066 65.3303 12.4353 65.8376 12.3368 66.4122C12.4346 65.8417 12.8345 65.3264 13.3652 65.0871Z" fill="url(#paint3_linear_115_21)"/>
<path d="M26.5463 65.3398C23.947 65.0084 22.7798 69.0012 20.3258 67.839C18.9012 67.1643 19.1686 64.9214 18.0112 64.5493C17.024 64.2969 14.2675 64.6159 13.3652 65.0871C12.9066 65.3303 12.4353 65.8376 12.3368 66.4122C12.0079 68.1531 12.3816 67.7165 12.7347 68.5715C12.9276 67.6223 13.686 66.0086 16.637 67.1477C18.0946 67.7103 18.8652 68.2534 19.4578 68.671C20.065 69.0989 20.4853 69.3951 21.2662 69.4458C22.8092 69.5459 25.0997 68.5715 27.342 67.1477C29.3934 65.845 30.0682 67.4835 30.7017 69.0217C30.7606 69.1648 30.8191 69.3069 30.8784 69.4458C31.093 69.16 31.3472 68.9539 31.537 68.5715C32.5658 66.4992 28.8542 65.634 26.5463 65.3398Z" fill="#FF2CA1"/>
<path fill-rule="evenodd" clip-rule="evenodd" d="M17.9718 30.6543L17.9383 30.7372L16.8577 31.505C16.7115 31.4248 15.4126 31.5684 15.4065 32.2453L15.4033 32.6612L15.6734 33.2145C15.6831 33.297 15.644 33.4299 15.41 33.3016C15.1761 33.1734 15.0681 32.6221 15.0433 32.3625C14.8031 32.5491 14.3429 32.9482 14.2422 32.8204C14.1415 32.6927 15.2318 31.4431 15.7668 30.8055L17.3965 29.977L18.7917 29.2691L19.5295 30.0909C19.3819 30.141 19.1881 30.3646 18.8885 30.4231C18.4845 30.502 18.0668 30.5835 17.9718 30.6543Z" fill="#FF34A7"/>
<path d="M17.7213 31.3836L16.8534 32.342C16.8534 32.342 16.9871 32.592 16.8567 32.6622C16.6865 32.754 16.2945 32.4755 16.378 32.3708C16.4823 32.2398 17.0039 31.5852 16.8577 31.505L17.9383 30.7372C17.7743 30.8655 17.7213 31.3836 17.7213 31.3836Z" fill="#C5035C"/>
<path d="M6.70438 31.8141C7.29577 30.9308 8.67979 31.299 8.74712 32.3575V32.3575C8.77659 32.8208 9.09886 33.2166 9.54801 33.3361L9.62393 33.3563C10.6264 33.623 10.6837 35.0211 9.7066 35.3747V35.3747C9.26219 35.5356 8.97705 35.9721 9.00697 36.4425V36.4425C9.07273 37.4762 7.77882 38.007 7.11102 37.2161L7.02862 37.1185C6.72758 36.7619 6.23536 36.631 5.79511 36.7903L5.6746 36.8339C4.69796 37.1874 3.84471 36.0853 4.4222 35.2228V35.2228C4.68498 34.8303 4.65791 34.3106 4.35402 33.9507V33.9507C3.6859 33.1594 4.43956 31.977 5.44208 32.2437L5.51799 32.2639C5.96714 32.3834 6.44553 32.2007 6.70438 31.8141V31.8141Z" fill="url(#paint4_linear_115_21)"/>
<path d="M16.7755 69.9429C16.7313 69.4873 17.2857 69.2306 17.6089 69.5571L17.6214 69.5697C17.7592 69.7089 17.9698 69.747 18.1472 69.6649L18.2129 69.6344C18.6088 69.4511 19.0044 69.8919 18.777 70.263V70.263C18.6716 70.435 18.6991 70.6583 18.8416 70.8023V70.8023C19.1484 71.1122 18.8892 71.6368 18.4577 71.5714L18.34 71.5535C18.1437 71.5238 17.9491 71.6139 17.8459 71.7823L17.784 71.8833C17.5571 72.2535 16.9857 72.1135 16.9438 71.6809V71.6809C16.9243 71.4799 16.7697 71.3155 16.5692 71.2852V71.2852C16.1368 71.2196 16.051 70.6354 16.4469 70.4521L16.5126 70.4216C16.6901 70.3395 16.796 70.1549 16.7772 69.9606L16.7755 69.9429Z" fill="#FD5FAD"/>
<path d="M23.5327 38.8003C23.0233 38.6181 23.1436 37.8635 23.6848 37.8465V37.8465C23.8832 37.8403 24.0583 37.7124 24.1235 37.5249V37.5249C24.2992 37.0207 25.0436 37.1378 25.0537 37.6712V37.6712C25.0575 37.8695 25.1842 38.0449 25.3709 38.1117V38.1117C25.8803 38.2939 25.7599 39.0484 25.2187 39.0654V39.0654C25.0204 39.0717 24.8453 39.1996 24.78 39.387V39.387C24.6044 39.8913 23.8599 39.7742 23.8498 39.2407V39.2407C23.8461 39.0425 23.7194 38.8671 23.5327 38.8003V38.8003Z" fill="#FD5FAD"/>
<path d="M20.8337 22.5067C20.7618 22.0654 21.3564 21.8506 21.587 22.2345V22.2345C21.6708 22.3741 21.8327 22.4488 21.9931 22.4209V22.4209C22.4257 22.3458 22.639 22.9278 22.259 23.1463V23.1463C22.1181 23.2273 22.0425 23.3879 22.0686 23.5483V23.5483C22.1405 23.9896 21.5459 24.2044 21.3153 23.8205V23.8205C21.2315 23.6809 21.0696 23.6062 20.9092 23.6341V23.6341C20.4766 23.7092 20.2633 23.1272 20.6433 22.9087V22.9087C20.7842 22.8277 20.8598 22.6671 20.8337 22.5067V22.5067Z" fill="#FD5FAD"/>
<path d="M30.6007 6.23696C29.8904 5.98067 29.9818 4.94379 30.7261 4.81387V4.81387C30.9838 4.7689 31.1982 4.58735 31.2838 4.34022V4.34022C31.5285 3.63362 32.555 3.7228 32.6724 4.46084V4.46084C32.7135 4.71898 32.8929 4.93474 33.1388 5.02345V5.02345C33.8491 5.27973 33.7577 6.31662 33.0134 6.44654V6.44654C32.7557 6.49151 32.5413 6.67306 32.4557 6.92019V6.92019C32.211 7.62679 31.1845 7.53761 31.0671 6.79957V6.79957C31.026 6.54143 30.8466 6.32567 30.6007 6.23696V6.23696Z" fill="#FD5FAD"/>
<path d="M65.4292 31.111C65.0041 30.9576 65.0588 30.3371 65.5042 30.2593V30.2593C65.6584 30.2324 65.7867 30.1238 65.838 29.9759V29.9759C65.9844 29.553 66.5987 29.6064 66.669 30.0481V30.0481C66.6936 30.2025 66.801 30.3317 66.9481 30.3848V30.3848C67.3732 30.5381 67.3185 31.1587 66.873 31.2364V31.2364C66.7189 31.2633 66.5905 31.372 66.5393 31.5199V31.5199C66.3929 31.9427 65.7785 31.8894 65.7083 31.4477V31.4477C65.6837 31.2932 65.5763 31.1641 65.4292 31.111V31.111Z" fill="#FD5FAD"/>
<path d="M58.9225 57.5019C58.756 57.1479 59.1711 56.802 59.4933 57.0263V57.0263C59.6043 57.1035 59.7494 57.1154 59.871 57.0564V57.0564C60.2195 56.8875 60.5638 57.2948 60.3357 57.6062V57.6062C60.2561 57.7149 60.2427 57.8589 60.3 57.9808V57.9808C60.4665 58.3348 60.0513 58.6806 59.7291 58.4564V58.4564C59.6182 58.3791 59.4731 58.3673 59.3514 58.4262V58.4262C59.003 58.5952 58.6587 58.1878 58.8868 57.8764V57.8764C58.9664 57.7677 58.9798 57.6238 58.9225 57.5019V57.5019Z" fill="#FD5FAD"/>
<path d="M57.2625 68.2761C56.7664 68.7693 55.9307 68.2902 56.1127 67.617V67.617C56.1753 67.3855 56.1072 67.1371 55.934 66.9712V66.9712C55.4374 66.4955 55.915 65.6743 56.5781 65.8634V65.8634C56.8095 65.9294 57.0602 65.8638 57.2308 65.6942V65.6942C57.727 65.2011 58.5627 65.6801 58.3806 66.3533V66.3533C58.318 66.5848 58.3862 66.8332 58.5594 66.9991V66.9991C59.0559 67.4748 58.5784 68.296 57.9152 68.1069V68.1069C57.6839 68.041 57.4332 68.1065 57.2625 68.2761V68.2761Z" fill="#FD5FAD"/>
<path d="M9.4328 15.3854C9.45872 14.7143 10.3424 14.4792 10.7028 15.0475V15.0475C10.8628 15.2999 11.1719 15.4183 11.4585 15.3349L11.5065 15.3209C12.1369 15.1376 12.6176 15.8922 12.183 16.3829V16.3829C11.9822 16.6095 11.9649 16.9457 12.14 17.1937V17.1937C12.5193 17.7309 11.9747 18.4354 11.3614 18.1969L11.2853 18.1673C11.0052 18.0584 10.6871 18.143 10.4994 18.3764L10.4484 18.4398C10.0374 18.9508 9.21096 18.6111 9.2689 17.9575V17.9575C9.29565 17.6558 9.11136 17.3733 8.82339 17.2767V17.2767C8.19991 17.0675 8.23617 16.1754 8.87442 16.0212L8.92301 16.0095C9.21324 15.9394 9.42129 15.6834 9.4328 15.3854V15.3854Z" fill="url(#paint5_linear_115_21)"/>
<path d="M18.6615 2.29828C19.6114 2.29828 20.552 2.48404 21.4295 2.84495C22.3071 3.20586 23.1044 3.73485 23.7761 4.40172C24.4478 5.06859 24.9805 5.86028 25.344 6.73159C25.7075 7.6029 25.8946 8.53676 25.8946 9.47986C25.8946 10.423 25.7075 11.3568 25.344 12.2281C24.9805 13.0994 24.4478 13.8911 23.7761 14.558C23.1044 15.2249 22.3071 15.7539 21.4295 16.1148C20.552 16.4757 19.6114 16.6614 18.6615 16.6614L18.6615 9.47986V2.29828Z" fill="url(#paint6_linear_115_21)"/>
<defs>
<linearGradient id="paint0_linear_115_21" x1="48.1381" y1="0" x2="48.1381" y2="34.4695" gradientUnits="userSpaceOnUse">
<stop stop-color="#FF3FA4"/>
<stop offset="1" stop-color="#C4307B"/>
</linearGradient>
<linearGradient id="paint1_linear_115_21" x1="46.1049" y1="30.7371" x2="46.1049" y2="80" gradientUnits="userSpaceOnUse">
<stop stop-color="#B72C73"/>
<stop offset="1" stop-color="#BF0C5E"/>
</linearGradient>
<linearGradient id="paint2_linear_115_21" x1="46.153" y1="30.7371" x2="46.153" y2="76.6274" gradientUnits="userSpaceOnUse">
<stop offset="0.685085" stop-color="#BB1E6A"/>
<stop offset="1" stop-color="#FC3DA1"/>
</linearGradient>
<linearGradient id="paint3_linear_115_21" x1="46.1" y1="63.1165" x2="46.1" y2="99.6589" gradientUnits="userSpaceOnUse">
<stop stop-color="#BB1E6A"/>
<stop offset="0.685994" stop-color="#FB3EA1"/>
</linearGradient>
<linearGradient id="paint4_linear_115_21" x1="8.53831" y1="29.0749" x2="5.66708" y2="39.8673" gradientUnits="userSpaceOnUse">
<stop stop-color="#FC3EA2"/>
<stop offset="1" stop-color="#FA1E8A"/>
</linearGradient>
<linearGradient id="paint5_linear_115_21" x1="9.51801" y1="13.1793" x2="11.3997" y2="20.2523" gradientUnits="userSpaceOnUse">
<stop stop-color="#FE3FA3"/>
<stop offset="1" stop-color="#FA1E8A"/>
</linearGradient>
<linearGradient id="paint6_linear_115_21" x1="25.8946" y1="0.323351" x2="25.8946" y2="18.5466" gradientUnits="userSpaceOnUse">
<stop stop-color="#FF2FA4"/>
<stop offset="1" stop-color="#FF52B4"/>
</linearGradient>
</defs>
</svg>
