<svg width="16" height="16" viewBox="0 0 16 16" fill="none" xmlns="http://www.w3.org/2000/svg">
<g clip-path="url(#clip0_260_8)">
<path d="M4.00933 5.33742C4.08551 4.73493 4.86851 3.91609 5.48992 4.00695L5.48893 4.00596C6.09367 4.12088 6.57239 5.16174 6.84233 5.62977C7.0336 5.96935 6.9094 6.3134 6.731 6.45858C6.49033 6.65255 6.11399 6.9202 6.19295 7.18893C6.33333 7.66667 8 9.33333 8.81973 9.80713C9.13 9.98647 9.355 9.51347 9.54713 9.27113C9.68673 9.08473 10.0311 8.97333 10.3699 9.15733C10.8759 9.452 11.3525 9.79447 11.7933 10.18C12.0135 10.364 12.0651 10.6359 11.9126 10.9233C11.6439 11.4295 10.8669 12.0971 10.3028 11.9614C9.3176 11.7245 5.33333 10.18 4.05355 5.70534C3.98158 5.49365 3.9997 5.41363 4.00933 5.33742Z" fill="white"/>
<path fill-rule="evenodd" clip-rule="evenodd" d="M8.00002 15.3333C7.18429 15.3333 6.73295 15.2458 6.00002 15L4.59631 15.7018C3.70977 16.1451 2.66669 15.5004 2.66669 14.5092V13C1.23105 11.6613 0.666687 10.1178 0.666687 7.99996C0.666687 3.94987 3.94993 0.666626 8.00002 0.666626C12.0501 0.666626 15.3334 3.94987 15.3334 7.99996C15.3334 12.05 12.0501 15.3333 8.00002 15.3333ZM4.00002 12.4202L3.57599 12.0248C2.4606 10.9848 2.00002 9.82203 2.00002 7.99996C2.00002 4.68625 4.68631 1.99996 8.00002 1.99996C11.3138 1.99996 14 4.68625 14 7.99996C14 11.3137 11.3138 14 8.00002 14C7.34289 14 7.03469 13.9406 6.42399 13.7358L5.899 13.5598L4.00002 14.5092V12.4202Z" fill="white"/>
</g>
<defs>
<clipPath id="clip0_260_8">
<rect width="16" height="16" fill="white"/>
</clipPath>
</defs>
</svg>
